<?xml version="1.0" encoding="utf-8"?>
<!-- Generator: Adobe Illustrator 22.0.1, SVG Export Plug-In . SVG Version: 6.00 Build 0)  -->
<svg version="1.1" id="Слой_1" xmlns="http://www.w3.org/2000/svg" xmlns:xlink="http://www.w3.org/1999/xlink" x="0px" y="0px"
	 viewBox="0 0 19.5 19.5" style="enable-background:new 0 0 19.5 19.5;" xml:space="preserve">
<style type="text/css">
	.st0{fill:#8E8E8E;}
</style>
<g>
	<path class="st0" d="M12.6,2.5H6.9c-2.5,0-4.4,2-4.5,4.5v5.6c0,2.5,2,4.4,4.5,4.5h5.6c2.5,0,4.4-2,4.5-4.5V6.9
		C17,4.5,15,2.5,12.6,2.5z M15.8,12.6c0,1.8-1.5,3.3-3.3,3.3H6.9c-1.8,0-3.3-1.5-3.3-3.3V6.9c0-1.8,1.5-3.3,3.3-3.3h5.6
		c1.8,0,3.3,1.5,3.3,3.3V12.6z"/>
	<path class="st0" d="M13.6,5c-0.5,0-0.9,0.4-0.9,0.9c0,0.5,0.4,0.9,0.9,0.9c0.5,0,0.9-0.4,0.9-0.9C14.5,5.4,14.1,5,13.6,5z"/>
	<path class="st0" d="M9.8,6C9.8,6,9.8,6,9.8,6C7.7,6,6,7.7,6,9.8s1.7,3.8,3.8,3.8c2.1,0,3.8-1.7,3.8-3.8C13.6,7.7,11.9,6,9.8,6z
		 M9.8,12.4c-1.4,0-2.6-1.2-2.6-2.6c0,0,0,0,0,0c0-1.4,1.2-2.6,2.6-2.6c1.4,0,2.6,1.2,2.6,2.6C12.4,11.2,11.2,12.4,9.8,12.4z"/>
</g>
</svg>
