<?xml version="1.0" encoding="utf-8"?>
<!-- Generator: Adobe Illustrator 22.0.1, SVG Export Plug-In . SVG Version: 6.00 Build 0)  -->
<svg version="1.1" id="Слой_1" xmlns="http://www.w3.org/2000/svg" xmlns:xlink="http://www.w3.org/1999/xlink" x="0px" y="0px"
	 viewBox="0 0 32.2 19.5" style="enable-background:new 0 0 32.2 19.5;" xml:space="preserve">
<style type="text/css">
	.st0{fill-rule:evenodd;clip-rule:evenodd;}
	.st1{fill:#FFFFFF;}
</style>
<path class="st0" d="M4.2,1.1h24c1.7,0,3,1.3,3,3v11c0,1.7-1.3,3-3,3h-24c-1.7,0-3-1.3-3-3v-11C1.2,2.4,2.5,1.1,4.2,1.1z"/>
<g>
	<path class="st1" d="M11,7c0.5,0.4,0.7,0.9,0.7,1.6c0,0.7-0.2,1.2-0.7,1.6c-0.5,0.4-1.1,0.6-1.9,0.6H7.4v2H6.7V6.4h2.4
		C9.9,6.4,10.5,6.6,11,7z M10.5,9.7C10.8,9.5,11,9.1,11,8.6c0-0.5-0.2-0.9-0.5-1.2S9.7,7,9.1,7H7.4v3.1h1.7
		C9.7,10.1,10.2,10,10.5,9.7z"/>
	<path class="st1" d="M17.4,12.7l-1.4-2c-0.2,0-0.3,0-0.5,0h-1.7v2h-0.7V6.4h2.4c0.8,0,1.4,0.2,1.9,0.6C17.8,7.4,18,7.9,18,8.6
		c0,0.5-0.1,0.9-0.4,1.2c-0.2,0.3-0.6,0.6-1.1,0.7l1.5,2.2H17.4z M16.9,9.7c0.3-0.3,0.5-0.7,0.5-1.2c0-0.5-0.2-0.9-0.5-1.2
		S16.1,7,15.4,7h-1.7v3.2h1.7C16.1,10.2,16.5,10,16.9,9.7z"/>
	<path class="st1" d="M20.7,12.4c-0.5-0.3-0.9-0.7-1.2-1.1c-0.3-0.5-0.4-1-0.4-1.6s0.1-1.2,0.4-1.6c0.3-0.5,0.7-0.9,1.2-1.1
		c0.5-0.3,1.1-0.4,1.7-0.4s1.2,0.1,1.7,0.4s0.9,0.7,1.2,1.1c0.3,0.5,0.4,1,0.4,1.6s-0.1,1.2-0.4,1.6s-0.7,0.9-1.2,1.1
		c-0.5,0.3-1.1,0.4-1.7,0.4S21.2,12.6,20.7,12.4z M23.7,11.8c0.4-0.2,0.7-0.5,0.9-0.9c0.2-0.4,0.3-0.8,0.3-1.3s-0.1-0.9-0.3-1.3
		c-0.2-0.4-0.5-0.7-0.9-0.9S22.9,7,22.4,7s-1,0.1-1.4,0.3c-0.4,0.2-0.7,0.5-1,0.9c-0.2,0.4-0.3,0.8-0.3,1.3s0.1,0.9,0.3,1.3
		c0.2,0.4,0.5,0.7,1,0.9c0.4,0.2,0.9,0.3,1.4,0.3S23.3,12.1,23.7,11.8z"/>
</g>
</svg>
