<?xml version="1.0" encoding="utf-8"?>
<!-- Generator: Adobe Illustrator 22.0.1, SVG Export Plug-In . SVG Version: 6.00 Build 0)  -->
<svg version="1.1" id="Слой_1" xmlns="http://www.w3.org/2000/svg" xmlns:xlink="http://www.w3.org/1999/xlink" x="0px" y="0px"
	 viewBox="0 0 19.5 19.5" style="enable-background:new 0 0 19.5 19.5;" xml:space="preserve">
<style type="text/css">
	.st0{fill:#8E8E8E;}
</style>
<g>
	<path class="st0" d="M16.4,6c-0.9,0-1.7-0.3-2.3-0.8c-0.7-0.6-1.3-1.4-1.5-2.3c0-0.2-0.1-0.5-0.1-0.7h-2.5v6.8l0,3.7
		c0,1-0.6,1.8-1.5,2.1c-0.3,0.1-0.5,0.1-0.8,0.1c-0.4,0-0.7-0.1-1-0.3c-0.6-0.4-1.1-1.1-1.1-1.9c0-1.3,1-2.3,2.3-2.3
		c0.2,0,0.5,0,0.7,0.1V8.7V8C8.3,8,8.1,7.9,7.8,7.9c-1.4,0-2.7,0.6-3.6,1.6c-0.7,0.8-1.1,1.8-1.2,2.8C3,13.7,3.5,15,4.5,16
		c0.1,0.1,0.3,0.3,0.4,0.4c0.8,0.6,1.8,1,2.9,1c0.2,0,0.5,0,0.7-0.1c1-0.1,1.9-0.6,2.6-1.3c0.9-0.9,1.4-2.1,1.4-3.3l0-5.5
		C13,7.4,13.5,7.7,14,7.9c0.8,0.3,1.6,0.5,2.5,0.5V6.6L16.4,6C16.4,6,16.4,6,16.4,6L16.4,6z"/>
</g>
</svg>
