<?xml version="1.0" encoding="utf-8"?>
<!-- Generator: Adobe Illustrator 22.0.1, SVG Export Plug-In . SVG Version: 6.00 Build 0)  -->
<svg version="1.1" id="Слой_1" xmlns="http://www.w3.org/2000/svg" xmlns:xlink="http://www.w3.org/1999/xlink" x="0px" y="0px"
	 viewBox="0 0 14 14" style="enable-background:new 0 0 14 14;" xml:space="preserve">
<g id="Ox2vRi_1_">
	<g>
		<g>
			<path d="M13.3,5.8C13.1,6,13,6.2,12.9,6.4c-0.3,0.4-0.3,0.8,0,1.2c0.2,0.2,0.3,0.5,0.4,0.7c0.3,0.6,0.1,1-0.4,1.3
				c-0.2,0.1-0.5,0.3-0.8,0.3c-0.5,0.2-0.7,0.5-0.7,1c0,0.3,0,0.6-0.1,0.9c-0.1,0.5-0.5,0.7-1,0.7c-0.4-0.1-0.8-0.1-1.1-0.2
				c-0.2,0-0.4,0-0.6,0.2c-0.2,0.2-0.4,0.4-0.6,0.6c-0.1,0.1-0.2,0.2-0.3,0.3c-0.4,0.3-0.8,0.3-1.2,0C6.2,13.3,6,13,5.8,12.8
				c-0.1-0.1-0.2-0.2-0.3-0.3c-0.2-0.2-0.4-0.3-0.7-0.2c-0.3,0.1-0.6,0.1-1,0.2c-0.7,0.1-1.1-0.2-1.2-0.9c0-0.3-0.1-0.7-0.1-1
				c0-0.2-0.2-0.4-0.4-0.5C1.9,10,1.7,9.9,1.4,9.7C1.3,9.7,1.1,9.6,1,9.5c-0.4-0.3-0.5-0.6-0.4-1C0.7,8.3,0.8,8.1,1,7.9
				c0.1-0.2,0.2-0.4,0.3-0.6c0.1-0.2,0.1-0.4,0-0.6C1.2,6.5,1,6.3,0.9,6.1C0.8,5.9,0.7,5.7,0.7,5.5C0.5,5.1,0.6,4.7,1,4.5
				c0.2-0.1,0.5-0.2,0.7-0.4C1.9,4,2.1,3.9,2.2,3.9c0.2-0.1,0.3-0.2,0.3-0.5c0-0.3,0.1-0.6,0.1-0.9c0-0.1,0-0.2,0.1-0.4
				c0.1-0.5,0.5-0.7,1-0.7c0.3,0,0.7,0.1,1,0.2c0.4,0.1,0.7,0,0.9-0.3C5.8,1.2,6,1,6.1,0.8c0.1-0.1,0.2-0.2,0.4-0.3
				c0.3-0.2,0.7-0.2,1,0C7.8,0.7,8,0.9,8.2,1.1c0.1,0.1,0.2,0.2,0.3,0.3c0.2,0.2,0.4,0.2,0.7,0.2c0.3-0.1,0.7-0.2,1-0.2
				c0.2,0,0.3,0,0.5,0c0.4,0.1,0.6,0.3,0.7,0.7c0.1,0.3,0.1,0.6,0.1,0.8c0,0.2,0,0.3,0.1,0.5c0,0.2,0.1,0.4,0.3,0.5
				C12,4,12.3,4.1,12.5,4.2c0.2,0.1,0.4,0.2,0.6,0.3c0.2,0.2,0.3,0.4,0.3,0.6C13.4,5.3,13.3,5.6,13.3,5.8z M4.2,7.2
				c0.5,0.5,1,1,1.5,1.5c0.3,0.3,0.6,0.3,0.9,0c1-1,2-2,3.1-3.1c0,0,0.1-0.1,0.1-0.1C9.5,5.4,9.2,5.1,9,4.9C8,5.8,7.1,6.7,6.1,7.7
				C5.7,7.3,5.3,6.9,4.9,6.5C4.7,6.7,4.4,7,4.2,7.2z"/>
		</g>
	</g>
</g>
</svg>
