<?xml version="1.0" encoding="utf-8"?>
<!-- Generator: Adobe Illustrator 22.0.1, SVG Export Plug-In . SVG Version: 6.00 Build 0)  -->
<svg version="1.1" id="Слой_1" xmlns="http://www.w3.org/2000/svg" xmlns:xlink="http://www.w3.org/1999/xlink" x="0px" y="0px"
	 viewBox="0 0 19.5 19.5" style="enable-background:new 0 0 19.5 19.5;" xml:space="preserve">
<style type="text/css">
	.st0{fill:#8E8E8E;}
</style>
<path class="st0" d="M18.7,5.8c0,0-0.2-1.4-0.7-2C17.3,3.1,16.5,3,16.1,3c-2.6-0.2-6.5-0.2-6.5-0.2h0c0,0-3.9,0-6.5,0.2
	C2.8,3,2,3.1,1.3,3.8c-0.6,0.6-0.7,2-0.7,2S0.4,7.4,0.4,9v1.5c0,1.6,0.2,3.2,0.2,3.2s0.2,1.4,0.7,2c0.7,0.8,1.6,0.8,2,0.8
	c1.5,0.2,6.3,0.2,6.3,0.2s3.9,0,6.5-0.2c0.4,0,1.2-0.1,1.9-0.8c0.6-0.6,0.7-2,0.7-2s0.2-1.6,0.2-3.2V9C18.9,7.4,18.7,5.8,18.7,5.8z
	 M7.3,13.2V6.3l5.8,3.5L7.3,13.2z"/>
</svg>
